<svg width="16" height="16" viewBox="0 0 16 16" fill="none" xmlns="http://www.w3.org/2000/svg">
<g id="Group 2725">
<circle id="Ellipse 221" cx="8" cy="8" r="7.5" stroke="#64F472"/>
<path id="Vector" d="M4.53596 8.59859L4.12918 8.20221C3.95694 8.03437 3.95694 7.76297 4.12918 7.59692L7.68942 4.12588C7.86166 3.95804 8.14017 3.95804 8.31058 4.12588L11.8708 7.59513C12.0431 7.76297 12.0431 8.03437 11.8708 8.20042L11.464 8.59681C11.29 8.76643 11.006 8.76286 10.8355 8.58967L8.73385 6.43991V11.5715C8.73385 11.8089 8.53779 12 8.29409 12H7.70774C7.46404 12 7.26798 11.8089 7.26798 11.5715V6.43991L5.16445 8.59145C4.99404 8.76643 4.71003 8.77 4.53596 8.59859Z" fill="#64F472"/>
</g>
</svg>
