<svg width="20" height="20" viewBox="0 0 20 20" fill="none" xmlns="http://www.w3.org/2000/svg">
<path d="M2.36768 15.1637L2.66639 14.8805C2.66639 14.6657 2.66639 14.3837 2.66639 14.1021C2.66639 13.8544 2.77244 13.737 3.01529 13.7382C3.8517 13.7418 4.63374 13.5291 5.38561 13.1778C5.88925 12.943 6.39468 12.7145 6.95029 12.6204C7.99311 12.4439 8.87254 12.7435 9.59334 13.5115C9.73523 13.6629 9.86219 13.8293 10.0029 13.9981C10.0982 13.8786 10.1899 13.7591 10.2885 13.6426C10.9134 12.9123 11.6924 12.5209 12.668 12.5753C13.2207 12.6052 13.738 12.7757 14.2378 13.0055C14.7833 13.2564 15.3257 13.5205 15.9229 13.6238C16.264 13.6836 16.6117 13.7089 16.9576 13.7334C17.2324 13.7532 17.3337 13.844 17.3343 14.1191C17.3349 14.3942 17.3343 14.6651 17.3343 14.9352C17.5912 15.0335 17.633 15.0944 17.633 15.3674C17.633 15.7502 17.633 16.1327 17.633 16.5151C17.633 16.7887 17.5285 16.8927 17.2542 16.8927C15.2871 16.8927 13.3198 16.8919 11.3525 16.8903C11.2458 16.8903 11.1867 16.9201 11.1293 17.0125C10.9388 17.3231 10.6547 17.5125 10.3034 17.6039C10.2716 17.6138 10.2403 17.6252 10.2096 17.6383H9.79139C9.76074 17.6253 9.72943 17.6139 9.69759 17.6042C9.35258 17.5146 9.07029 17.3297 8.8809 17.0259C8.81339 16.9172 8.7414 16.89 8.62102 16.89C6.67159 16.8939 4.72216 16.89 2.77274 16.896C2.58962 16.896 2.4555 16.8458 2.36797 16.6842L2.36768 15.1637ZM17.0293 15.552H16.8776C14.9459 15.552 13.0131 15.5515 11.0792 15.5505C10.727 15.5505 10.4408 15.6485 10.2442 15.9643C10.1266 16.153 9.87324 16.1566 9.75764 15.9696C9.55869 15.647 9.26834 15.5496 8.91077 15.5514C6.98285 15.5554 5.05493 15.556 3.12701 15.5532H2.97138V16.2985H8.89285C9.15572 16.2985 9.20919 16.3335 9.30777 16.5709C9.36194 16.7097 9.45657 16.8289 9.57937 16.9132C9.70217 16.9975 9.84747 17.043 9.99642 17.0436C10.1454 17.0443 10.2911 17.0002 10.4146 16.917C10.5382 16.8339 10.6339 16.7155 10.6893 16.5772C10.7936 16.3299 10.8417 16.2985 11.1153 16.2985H17.0299L17.0293 15.552ZM10.3141 15.104C10.7153 14.9008 11.152 14.9573 11.5807 14.9564C13.2392 14.9528 14.8976 14.9523 16.5558 14.9549H16.7282V14.3303C16.0395 14.2973 15.362 14.1431 14.7268 13.8747C14.3797 13.7284 14.0397 13.5647 13.6908 13.4234C13.1681 13.2119 12.628 13.0975 12.0619 13.2119C11.3752 13.3502 10.9032 13.7851 10.5029 14.3276C10.3288 14.563 10.2526 14.8043 10.3141 15.104ZM9.68505 15.1016C9.75256 14.7972 9.68057 14.5415 9.48521 14.3177C9.33196 14.1424 9.19426 13.9512 9.02638 13.7911C8.51497 13.3039 7.9041 13.104 7.19853 13.188C6.76419 13.2406 6.3663 13.4001 5.96602 13.5644C5.44864 13.7765 4.93067 13.9927 4.39746 14.1573C4.0375 14.2684 3.65067 14.2929 3.27219 14.3569V14.9543H3.45889C5.1317 14.9543 6.80452 14.9543 8.47733 14.9543C8.88837 14.9561 9.30388 14.9122 9.68505 15.1016Z" fill="white" stroke="white" stroke-width="0.2"/>
<path d="M8.2112 10.0301C8.2112 9.76122 8.20432 9.49238 8.21299 9.22563C8.22419 8.94522 8.13994 8.66931 7.97401 8.44299C7.78074 8.17265 7.58568 7.90261 7.38823 7.63645C5.94871 5.69867 6.94613 2.98931 9.30002 2.44744C11.1604 2.01818 13.0477 3.36211 13.2541 5.25807C13.3509 6.14436 13.1305 6.93865 12.5993 7.65139C12.4067 7.91008 12.2188 8.17235 12.0318 8.43403C11.8646 8.66483 11.7787 8.94463 11.7877 9.22951C11.7964 9.79558 11.7877 10.3619 11.7922 10.928C11.796 10.9947 11.785 11.0615 11.76 11.1234C11.735 11.1854 11.6967 11.2411 11.6476 11.2865C11.4789 11.4475 11.3253 11.6258 11.1476 11.7761C11.0593 11.8512 10.9495 11.8965 10.8339 11.9054C10.2779 11.9182 9.72171 11.9182 9.1653 11.9054C9.05423 11.8981 8.94846 11.8553 8.86359 11.7832C8.67877 11.6249 8.5064 11.4525 8.34801 11.2677C8.27392 11.1787 8.22879 11.0693 8.21866 10.954C8.20014 10.6463 8.2112 10.338 8.2112 10.0301ZM10.0145 5.8555C10.0842 5.76738 10.134 5.69897 10.1893 5.63654C10.2446 5.57411 10.3064 5.51466 10.3685 5.45731C10.5125 5.32348 10.6834 5.31841 10.8061 5.44178C10.9289 5.56515 10.9256 5.73601 10.7882 5.8794C10.6583 6.01621 10.5158 6.14167 10.3918 6.28356C10.339 6.34405 10.3075 6.42026 10.3022 6.50043C10.2959 7.26037 10.2983 8.0206 10.2986 8.78054C10.2986 8.82803 10.3028 8.87553 10.3052 8.92302H11.2046C11.2623 8.44508 11.5428 8.08094 11.8095 7.71083C11.9374 7.53339 12.0739 7.36253 12.1979 7.1836C12.5203 6.72125 12.6888 6.16904 12.6795 5.60544C12.6701 5.04185 12.4833 4.49554 12.1457 4.04416C11.8081 3.59279 11.3368 3.25931 10.7988 3.09112C10.2608 2.92293 9.68346 2.9286 9.14887 3.1073C7.3951 3.69219 6.76063 5.79904 7.87992 7.2998C8.25391 7.80134 8.69542 8.26824 8.79997 8.91914H9.70179C9.70179 8.08273 9.70179 7.25977 9.69851 6.43561C9.69851 6.38961 9.66147 6.33584 9.62711 6.29939C9.50106 6.16587 9.36813 6.03891 9.23878 5.90777C9.07718 5.74378 9.06254 5.56903 9.19726 5.43819C9.33198 5.30735 9.49896 5.32558 9.65609 5.4821C9.76542 5.58964 9.86937 5.70315 10.0145 5.8555ZM8.8149 10.1119H11.181V9.53241H8.8149V10.1119ZM11.2363 10.727H8.76352C8.81908 10.8312 8.84925 10.9155 8.90243 10.9815C8.97727 11.0742 9.06179 11.1586 9.15454 11.2333C9.20924 11.2782 9.27639 11.3052 9.34692 11.3107C9.66893 11.3184 9.99364 11.2913 10.3133 11.3205C10.6442 11.3504 10.9035 11.2683 11.0899 10.9919C11.1422 10.9173 11.1784 10.8333 11.2363 10.727Z" fill="white" stroke="white" stroke-width="0.2"/>
<path d="M5.37188 5.94855C5.273 5.94855 5.17383 5.95303 5.07495 5.94855C4.99732 5.94714 4.92333 5.91535 4.86888 5.86C4.81443 5.80466 4.78384 5.73016 4.7837 5.65252C4.78306 5.57479 4.81327 5.49999 4.8677 5.4445C4.92212 5.38901 4.99633 5.35736 5.07405 5.35649C5.27658 5.34992 5.47941 5.34992 5.68254 5.35649C5.76026 5.35712 5.83456 5.38854 5.88916 5.44387C5.94375 5.49919 5.97419 5.5739 5.97379 5.65162C5.97381 5.72922 5.94342 5.80373 5.88914 5.85918C5.83486 5.91463 5.76101 5.94661 5.68344 5.94825C5.57978 5.95333 5.47583 5.94855 5.37188 5.94855Z" fill="white" stroke="white" stroke-width="0.2"/>
<path d="M14.6202 5.94866C14.5213 5.94866 14.4221 5.95284 14.3236 5.94866C14.1467 5.94 14.0213 5.80886 14.0249 5.64367C14.0293 5.48416 14.1521 5.36049 14.3236 5.35571C14.5213 5.35033 14.7197 5.35003 14.9171 5.35571C14.995 5.3549 15.07 5.38485 15.126 5.43904C15.1819 5.49324 15.2142 5.5673 15.2158 5.64516C15.2197 5.81006 15.0937 5.9403 14.9171 5.94866C14.8182 5.95254 14.7191 5.94866 14.6202 5.94866Z" fill="white" stroke="white" stroke-width="0.2"/>
<path d="M6.54945 3.43264C6.54945 3.70328 6.33139 3.85084 6.13125 3.75227C5.93631 3.65387 5.7473 3.54415 5.56518 3.42368C5.43255 3.33735 5.40626 3.17455 5.48303 3.04072C5.51754 2.9761 5.57571 2.92733 5.64536 2.90461C5.71501 2.8819 5.79075 2.887 5.85673 2.91885C6.05607 3.01923 6.24902 3.13186 6.43444 3.2561C6.49927 3.29881 6.52764 3.3962 6.54945 3.43264Z" fill="white" stroke="white" stroke-width="0.2"/>
<path d="M6.57809 7.84127C6.52074 7.91595 6.47713 8.01064 6.40334 8.06142C6.23793 8.17139 6.0665 8.27201 5.88985 8.36283C5.73571 8.44557 5.56813 8.39897 5.48628 8.26156C5.39876 8.11459 5.43879 7.94731 5.59561 7.85053C5.76439 7.74628 5.93555 7.64441 6.1118 7.5539C6.32747 7.44218 6.55599 7.58616 6.57809 7.84127Z" fill="white" stroke="white" stroke-width="0.2"/>
<path d="M13.7775 7.51562C13.8215 7.52637 13.8644 7.54158 13.9053 7.56103C14.0702 7.65244 14.2339 7.74564 14.3952 7.84391C14.5565 7.94219 14.6004 8.1044 14.5192 8.25256C14.4379 8.40072 14.2653 8.44762 14.1064 8.36129C13.9271 8.26451 13.7512 8.16265 13.5791 8.05421C13.454 7.97535 13.4214 7.84869 13.4653 7.71397C13.5092 7.57925 13.6096 7.51682 13.7775 7.51562Z" fill="white" stroke="white" stroke-width="0.2"/>
<path d="M14.5577 3.25192C14.5293 3.29075 14.4887 3.38873 14.4149 3.43981C14.2455 3.55243 14.0696 3.65516 13.8883 3.74749C13.7348 3.82904 13.5678 3.77736 13.4877 3.63846C13.4681 3.60516 13.4552 3.56829 13.4499 3.52999C13.4446 3.49169 13.447 3.45271 13.4569 3.41533C13.4668 3.37795 13.484 3.3429 13.5075 3.31223C13.5311 3.28157 13.5605 3.25589 13.5941 3.23668C13.7664 3.12885 13.9418 3.0243 14.1231 2.93259C14.3301 2.82804 14.5598 2.97172 14.5577 3.25192Z" fill="white" stroke="white" stroke-width="0.2"/>
</svg>
