<svg width="20" height="20" viewBox="0 0 20 20" fill="none" xmlns="http://www.w3.org/2000/svg">
<g id="Group 1707479922">
<circle id="Ellipse 351" opacity="0.12" cx="10" cy="10" r="10" fill="#181818"/>
<g id="Group 1707479919">
<path id="Vector" d="M12.5763 11.5472H12.0343L11.8422 11.3619C12.5378 10.5551 12.9201 9.52501 12.9194 8.45969C12.9194 7.57765 12.6578 6.71541 12.1678 5.98202C11.6778 5.24863 10.9812 4.67702 10.1663 4.33948C9.35144 4.00193 8.45474 3.91362 7.58965 4.08569C6.72455 4.25777 5.92991 4.68252 5.30621 5.30621C4.68252 5.92991 4.25777 6.72455 4.08569 7.58965C3.91362 8.45474 4.00193 9.35144 4.33948 10.1663C4.67702 10.9812 5.24863 11.6778 5.98202 12.1678C6.71541 12.6578 7.57765 12.9194 8.45969 12.9194C9.56432 12.9194 10.5798 12.5146 11.3619 11.8422L11.5472 12.0343V12.5763L14.9777 16L16 14.9777L12.5763 11.5472ZM8.45969 11.5472C6.75129 11.5472 5.37221 10.1681 5.37221 8.45969C5.37221 6.75129 6.75129 5.37221 8.45969 5.37221C10.1681 5.37221 11.5472 6.75129 11.5472 8.45969C11.5472 10.1681 10.1681 11.5472 8.45969 11.5472Z" fill="#181818"/>
</g>
</g>
</svg>
