<svg width="16" height="16" viewBox="0 0 16 16" fill="none" xmlns="http://www.w3.org/2000/svg">
<g id="Group 2725">
<circle id="Ellipse 221" cx="8" cy="8" r="7.5" transform="rotate(-180 8 8)" stroke="#FC5757"/>
<path id="Vector" d="M11.464 7.40141L11.8708 7.79779C12.0431 7.96563 12.0431 8.23703 11.8708 8.40308L8.31058 11.8741C8.13834 12.042 7.85983 12.042 7.68942 11.8741L4.12918 8.40487C3.95694 8.23703 3.95694 7.96563 4.12918 7.79958L4.53596 7.40319C4.71003 7.23357 4.99404 7.23714 5.16445 7.41033L7.26615 9.56009V4.42852C7.26615 4.19105 7.46221 4 7.70591 4H8.29226C8.53596 4 8.73202 4.19105 8.73202 4.42852V9.56009L10.8355 7.40855C11.006 7.23357 11.29 7.23 11.464 7.40141Z" fill="#FC5757"/>
</g>
</svg>
