<svg width="40" height="40" viewBox="0 0 40 40" fill="none" xmlns="http://www.w3.org/2000/svg">
<g id="Group 1707479762">
<circle id="Ellipse 329" cx="20" cy="20" r="19.5" fill="#E5F5FF" stroke="#0072B1"/>
<g id="Group 2606">
<g id="Group 2113">
<g id="Group 2106">
<g id="Group 2104">
<g id="Group 258">
<g id="Vector">
<mask id="path-2-inside-1_3403_25293" fill="white">
<path d="M18.4541 27.916C18.5056 28.3037 18.6901 28.6589 18.9734 28.916C19.2567 29.1732 19.6198 29.3148 19.9956 29.3148C20.3714 29.3148 20.7345 29.1732 21.0179 28.916C21.3012 28.6589 21.4857 28.3037 21.5372 27.916H18.4541Z"/>
</mask>
<path d="M18.4541 27.916V26.316H16.6275L16.868 28.1267L18.4541 27.916ZM19.9956 29.3148L19.9956 30.9148L19.9956 29.3148ZM21.5372 27.916L23.1232 28.1267L23.3637 26.316H21.5372V27.916ZM16.868 28.1267C16.9681 28.8802 17.328 29.5836 17.8982 30.101L20.0486 27.7311C20.0506 27.733 20.0492 27.7324 20.0468 27.7276C20.0443 27.7229 20.0415 27.7154 20.0402 27.7054L16.868 28.1267ZM17.8982 30.101C18.47 30.6198 19.2144 30.9148 19.9956 30.9148L19.9956 27.7148C20.0253 27.7148 20.0434 27.7265 20.0486 27.7311L17.8982 30.101ZM19.9956 30.9148C20.7768 30.9148 21.5212 30.6198 22.093 30.101L19.9427 27.7311C19.9478 27.7265 19.966 27.7148 19.9956 27.7148L19.9956 30.9148ZM22.093 30.101C22.6632 29.5836 23.0231 28.8802 23.1232 28.1267L19.9511 27.7054C19.9498 27.7154 19.947 27.7229 19.9445 27.7276C19.942 27.7324 19.9407 27.733 19.9427 27.7311L22.093 30.101ZM21.5372 26.316H18.4541V29.516H21.5372V26.316Z" fill="#0072B1" mask="url(#path-2-inside-1_3403_25293)"/>
</g>
</g>
</g>
</g>
</g>
<path id="Vector_2" d="M28.25 25.7694V26.7747H11.75V25.7694L11.788 25.7345L11.788 25.7346L11.7931 25.7297C12.3836 25.1716 12.8993 24.5343 13.3268 23.835L13.3388 23.8153L13.349 23.7946C13.8273 22.8204 14.1136 21.7574 14.1917 20.6679L14.193 20.6501V20.6322L14.193 17.6106L14.193 17.6096C14.1901 16.1258 14.7038 14.694 15.6345 13.5791C16.5648 12.4648 17.8476 11.7433 19.2432 11.5424L19.672 11.4807V11.0475V10.2462C19.672 10.1559 19.7066 10.0731 19.7623 10.0151C19.8173 9.95788 19.8874 9.92969 19.956 9.92969C20.0245 9.92969 20.0947 9.95788 20.1496 10.0151C20.2053 10.0731 20.2399 10.1559 20.2399 10.2462V11.0353V11.4732L20.674 11.5309C22.0821 11.7183 23.3806 12.4353 24.3232 13.5534C25.2663 14.672 25.7872 16.1141 25.7836 17.6094V17.6106V20.6322V20.6501L25.7848 20.6679C25.863 21.7574 26.1492 22.8204 26.6275 23.7946L26.6384 23.8168L26.6515 23.8378C27.0865 24.539 27.6107 25.1765 28.2102 25.7329L28.212 25.7345L28.25 25.7694Z" stroke="#0072B1"/>
</g>
</g>
</svg>
