<svg width="32" height="32" viewBox="0 0 32 32" fill="none" xmlns="http://www.w3.org/2000/svg">
<g id="ion:warning">
<path id="Vector" d="M28.0668 24.9425L17.415 5.16125C16.66 3.75875 14.6487 3.75875 13.8931 5.16125L3.24183 24.9425C3.0779 25.247 2.99571 25.5887 3.00329 25.9345C3.01087 26.2802 3.10795 26.618 3.28506 26.915C3.46218 27.212 3.71327 27.458 4.01383 27.629C4.31439 27.8 4.65415 27.8901 4.99995 27.8906H26.3056C26.6516 27.8907 26.9918 27.8009 27.2928 27.6302C27.5938 27.4594 27.8453 27.2134 28.0228 26.9163C28.2003 26.6193 28.2976 26.2812 28.3054 25.9352C28.3131 25.5893 28.2309 25.2472 28.0668 24.9425ZM15.6543 24.8281C15.4071 24.8281 15.1654 24.7548 14.9599 24.6175C14.7543 24.4801 14.5941 24.2849 14.4995 24.0565C14.4049 23.8281 14.3801 23.5767 14.4283 23.3343C14.4766 23.0918 14.5956 22.8691 14.7704 22.6942C14.9453 22.5194 15.168 22.4004 15.4105 22.3521C15.6529 22.3039 15.9043 22.3287 16.1327 22.4233C16.3611 22.5179 16.5563 22.6781 16.6937 22.8837C16.831 23.0892 16.9043 23.3309 16.9043 23.5781C16.9043 23.9096 16.7726 24.2276 16.5382 24.462C16.3038 24.6964 15.9858 24.8281 15.6543 24.8281ZM17.0118 12.2563L16.6531 19.8813C16.6531 20.1465 16.5477 20.4008 16.3602 20.5884C16.1726 20.7759 15.9183 20.8813 15.6531 20.8813C15.3879 20.8813 15.1335 20.7759 14.946 20.5884C14.7584 20.4008 14.6531 20.1465 14.6531 19.8813L14.2943 12.2594C14.2863 12.0772 14.315 11.8954 14.3787 11.7245C14.4424 11.5537 14.5399 11.3975 14.6653 11.2652C14.7907 11.1328 14.9414 11.0271 15.1086 10.9543C15.2757 10.8814 15.4558 10.843 15.6381 10.8413H15.6512C15.8347 10.8412 16.0164 10.8782 16.1852 10.9503C16.354 11.0223 16.5065 11.1278 16.6334 11.2604C16.7603 11.393 16.8591 11.5499 16.9237 11.7217C16.9883 11.8935 17.0174 12.0766 17.0093 12.26L17.0118 12.2563Z" fill="#ABABAB"/>
</g>
</svg>
