<svg width="20" height="20" viewBox="0 0 20 20" fill="none" xmlns="http://www.w3.org/2000/svg">
<g id="Iconsax/Linear/messages1" clip-path="url(#clip0_3403_24672)">
<path id="Vector" d="M14.9827 8.99167V12.325C14.9827 12.5417 14.9744 12.75 14.9494 12.95C14.7577 15.2 13.4327 16.3167 10.991 16.3167H10.6577C10.4493 16.3167 10.2493 16.4167 10.1243 16.5833L9.12435 17.9167C8.68268 18.5083 7.96602 18.5083 7.52435 17.9167L6.52435 16.5833C6.45765 16.5057 6.37612 16.4421 6.28454 16.3963C6.19297 16.3505 6.09318 16.3234 5.99102 16.3167H5.65768C2.99935 16.3167 1.66602 15.6583 1.66602 12.325V8.99167C1.66602 6.55 2.79102 5.225 5.03268 5.03333C5.23268 5.00833 5.44102 5 5.65768 5H10.991C13.6493 5 14.9827 6.33333 14.9827 8.99167Z" stroke="white" stroke-width="1.5" stroke-miterlimit="10" stroke-linecap="round" stroke-linejoin="round"/>
<path id="Vector_2" d="M18.3165 5.65573V8.98906C18.3165 11.4391 17.1915 12.7557 14.9499 12.9474C14.9749 12.7474 14.9832 12.5391 14.9832 12.3224V8.98906C14.9832 6.33073 13.6499 4.9974 10.9915 4.9974H5.6582C5.44154 4.9974 5.2332 5.00573 5.0332 5.03073C5.22487 2.78906 6.54987 1.66406 8.99154 1.66406H14.3249C16.9832 1.66406 18.3165 2.9974 18.3165 5.65573Z" stroke="white" stroke-width="1.5" stroke-miterlimit="10" stroke-linecap="round" stroke-linejoin="round"/>
<path id="Vector_3" d="M11.2454 11.0391H11.2538M8.32878 11.0391H8.33711M5.41211 11.0391H5.42044" stroke="white" stroke-width="2" stroke-linecap="round" stroke-linejoin="round"/>
</g>
<defs>
<clipPath id="clip0_3403_24672">
<rect width="20" height="20" fill="white"/>
</clipPath>
</defs>
</svg>
