<svg width="12" height="12" viewBox="0 0 12 12" fill="none" xmlns="http://www.w3.org/2000/svg">
<g id="heroicons:user-plus-solid">
<path id="Vector" d="M4 3.0625C4 2.51549 4.2173 1.99089 4.60409 1.60409C4.99089 1.2173 5.51549 1 6.0625 1C6.60951 1 7.13411 1.2173 7.52091 1.60409C7.9077 1.99089 8.125 2.51549 8.125 3.0625C8.125 3.60951 7.9077 4.13411 7.52091 4.52091C7.13411 4.9077 6.60951 5.125 6.0625 5.125C5.51549 5.125 4.99089 4.9077 4.60409 4.52091C4.2173 4.13411 4 3.60951 4 3.0625ZM2.5 9.4375C2.5 8.49267 2.87533 7.58653 3.54343 6.91843C4.21153 6.25033 5.11767 5.875 6.0625 5.875C7.00733 5.875 7.91347 6.25033 8.58157 6.91843C9.24967 7.58653 9.625 8.49267 9.625 9.4375V9.439L9.6245 9.4985C9.62344 9.56209 9.60622 9.62436 9.57447 9.67947C9.54272 9.73457 9.49748 9.78069 9.443 9.8135C8.4226 10.428 7.25363 10.7518 6.0625 10.75C4.8265 10.75 3.6695 10.408 2.6825 9.8135C2.62793 9.78075 2.58258 9.73466 2.55074 9.67955C2.5189 9.62444 2.50161 9.56213 2.5005 9.4985L2.5 9.4375Z" fill="#181818"/>
</g>
</svg>
