<svg width="28" height="28" viewBox="0 0 28 28" fill="none" xmlns="http://www.w3.org/2000/svg">
<g id="iconoir:emoji">
<g id="Group">
<path id="Vector" d="M14.0007 25.6693C7.55715 25.6693 2.33398 20.4461 2.33398 14.0026C2.33398 7.5591 7.55715 2.33594 14.0007 2.33594C20.4442 2.33594 25.6673 7.5591 25.6673 14.0026C25.6673 20.4461 20.4442 25.6693 14.0007 25.6693Z" stroke="#0072B1" stroke-width="1.5" stroke-linecap="round" stroke-linejoin="round"/>
<path id="Vector_2" d="M19.25 16.9219C19.25 16.9219 17.5 19.2552 14 19.2552C10.5 19.2552 8.75 16.9219 8.75 16.9219" stroke="#0072B1" stroke-width="1.5" stroke-linecap="round" stroke-linejoin="round"/>
<path id="Vector_3" d="M18.084 10.5026C17.9293 10.5026 17.7809 10.4411 17.6715 10.3318C17.5621 10.2224 17.5007 10.074 17.5007 9.91927C17.5007 9.76456 17.5621 9.61619 17.6715 9.50679C17.7809 9.3974 17.9293 9.33594 18.084 9.33594C18.2387 9.33594 18.3871 9.3974 18.4965 9.50679C18.6059 9.61619 18.6673 9.76456 18.6673 9.91927C18.6673 10.074 18.6059 10.2224 18.4965 10.3318C18.3871 10.4411 18.2387 10.5026 18.084 10.5026ZM9.91732 10.5026C9.76261 10.5026 9.61423 10.4411 9.50484 10.3318C9.39544 10.2224 9.33398 10.074 9.33398 9.91927C9.33398 9.76456 9.39544 9.61619 9.50484 9.50679C9.61423 9.3974 9.76261 9.33594 9.91732 9.33594C10.072 9.33594 10.2204 9.3974 10.3298 9.50679C10.4392 9.61619 10.5007 9.76456 10.5007 9.91927C10.5007 10.074 10.4392 10.2224 10.3298 10.3318C10.2204 10.4411 10.072 10.5026 9.91732 10.5026Z" fill="#0072B1" stroke="#0072B1" stroke-width="1.5" stroke-linecap="round" stroke-linejoin="round"/>
</g>
</g>
</svg>
