<svg width="20" height="21" viewBox="0 0 20 21" fill="none" xmlns="http://www.w3.org/2000/svg">
<path d="M6.66797 2.16699V4.66699M13.3346 2.16699V4.66699" stroke="#ABABAB" stroke-width="0.8" stroke-miterlimit="10" stroke-linecap="round" stroke-linejoin="round"/>
<path d="M18.3333 18.8333L17.5 18M15.1667 18.3333C15.8739 18.3333 16.5522 18.0524 17.0523 17.5523C17.5524 17.0522 17.8333 16.3739 17.8333 15.6667C17.8333 14.9594 17.5524 14.2811 17.0523 13.781C16.5522 13.281 15.8739 13 15.1667 13C14.4594 13 13.7811 13.281 13.281 13.781C12.781 14.2811 12.5 14.9594 12.5 15.6667C12.5 16.3739 12.781 17.0522 13.281 17.5523C13.7811 18.0524 14.4594 18.3333 15.1667 18.3333Z" stroke="#ABABAB" stroke-width="0.8" stroke-linecap="round" stroke-linejoin="round"/>
<path d="M2.91667 8.07508H17.0833M11.1417 18.8334H6.66667C3.75 18.8334 2.5 17.1667 2.5 14.6667V7.58341C2.5 5.08341 3.75 3.41675 6.66667 3.41675H13.3333C16.25 3.41675 17.5 5.08341 17.5 7.58341V11.3334" stroke="#ABABAB" stroke-width="0.8" stroke-miterlimit="10" stroke-linecap="round" stroke-linejoin="round"/>
<path d="M9.99823 11.916H10.0066M6.91406 11.916H6.9224M6.91406 14.416H6.9224" stroke="#ABABAB" stroke-width="0.8" stroke-linecap="round" stroke-linejoin="round"/>
</svg>
