<svg width="24" height="25" viewBox="0 0 24 25" fill="none" xmlns="http://www.w3.org/2000/svg">
<g id="fb">
<g id="Group 1707480433">
<path id="Vector" d="M20.8965 2.09375H3.10351C2.49406 2.09375 2 2.58781 2 3.19726V20.9902C2 21.5997 2.49406 22.0938 3.10351 22.0938H20.8965C21.5059 22.0938 22 21.5997 22 20.9902V3.19726C22 2.58781 21.5059 2.09375 20.8965 2.09375Z" fill="#1877F2"/>
<path id="Vector_2" d="M16.8413 22.0938V14.3392H19.4945L19.8913 11.3173H16.8413V9.38838C16.8413 8.5136 17.0897 7.91632 18.368 7.91632H20V5.20909C19.2097 5.12846 18.4156 5.09005 17.621 5.09403C15.2714 5.09403 13.6532 6.49841 13.6532 9.08889V11.3173H11V14.3392H13.6532V22.0938H16.8413Z" fill="white"/>
</g>
</g>
</svg>
