<svg width="20" height="20" viewBox="0 0 20 20" fill="none" xmlns="http://www.w3.org/2000/svg">
<g clip-path="url(#clip0_3377_22664)">
<path d="M12.9785 4.87775C13.226 5.12623 13.4121 5.42901 13.522 5.76203L13.8778 6.85489C13.9077 6.93895 13.9628 7.01169 14.0357 7.06313C14.1086 7.11456 14.1957 7.14218 14.2849 7.14218C14.3741 7.14218 14.4611 7.11456 14.534 7.06313C14.6069 7.01169 14.6621 6.93895 14.692 6.85489L15.0478 5.76203C15.1583 5.42972 15.3448 5.12778 15.5926 4.88027C15.8404 4.63276 16.1425 4.4465 16.4749 4.33632L17.5678 3.98132C17.6518 3.95141 17.7246 3.89622 17.776 3.82332C17.8274 3.75043 17.855 3.66339 17.855 3.57417C17.855 3.48495 17.8274 3.39792 17.776 3.32502C17.7246 3.25213 17.6518 3.19694 17.5678 3.16703L17.5463 3.16132L16.4528 2.80632C16.1204 2.69594 15.8184 2.50961 15.5707 2.26212C15.323 2.01464 15.1363 1.71281 15.0256 1.3806L14.6706 0.287745C14.641 0.203362 14.586 0.130253 14.513 0.0785298C14.4401 0.0268063 14.3529 -0.000976562 14.2635 -0.000976562C14.1741 -0.000976562 14.0868 0.0268063 14.0139 0.0785298C13.941 0.130253 13.8859 0.203362 13.8563 0.287745L13.5006 1.3806L13.4913 1.40774C13.3803 1.73172 13.1968 2.02609 12.9548 2.26845C12.7128 2.51081 12.4187 2.69476 12.0949 2.80632L11.002 3.16132C10.918 3.19122 10.8452 3.24641 10.7938 3.31931C10.7424 3.39221 10.7147 3.47924 10.7147 3.56846C10.7147 3.65768 10.7424 3.74471 10.7938 3.81761C10.8452 3.89051 10.918 3.9457 11.002 3.9756L12.0949 4.3306C12.4285 4.44203 12.7306 4.62917 12.9785 4.87775ZM19.157 7.39846L19.8128 7.61132L19.8263 7.61417C19.8771 7.63179 19.9211 7.66477 19.9523 7.70855C19.9834 7.75233 20.0001 7.80473 20.0001 7.85846C20.0001 7.91219 19.9834 7.96459 19.9523 8.00837C19.9211 8.05215 19.8771 8.08513 19.8263 8.10275L19.1699 8.31632C18.9706 8.38256 18.7896 8.49432 18.641 8.64273C18.4925 8.79114 18.3806 8.97212 18.3142 9.17132L18.1006 9.82703C18.0827 9.87747 18.0496 9.92111 18.0058 9.95197C17.9621 9.98284 17.9099 9.9994 17.8563 9.9994C17.8028 9.9994 17.7506 9.98284 17.7068 9.95197C17.6631 9.92111 17.63 9.87747 17.612 9.82703L17.3985 9.17132C17.3326 8.97143 17.2209 8.78971 17.0723 8.64065C16.9238 8.49158 16.7424 8.37929 16.5428 8.31275L15.8863 8.09989C15.8356 8.08228 15.7915 8.04929 15.7604 8.00551C15.7292 7.96173 15.7125 7.90933 15.7125 7.8556C15.7125 7.80187 15.7292 7.74948 15.7604 7.7057C15.7915 7.66192 15.8356 7.62893 15.8863 7.61132L16.5428 7.39775C16.7396 7.32981 16.9181 7.2173 17.0643 7.06898C17.2105 6.92067 17.3205 6.74057 17.3856 6.54275L17.5992 5.88703C17.6171 5.8366 17.6502 5.79295 17.694 5.76209C17.7377 5.73123 17.7899 5.71466 17.8435 5.71466C17.897 5.71466 17.9492 5.73123 17.993 5.76209C18.0367 5.79295 18.0698 5.8366 18.0878 5.88703L18.3006 6.54275C18.367 6.74207 18.479 6.92315 18.6277 7.07158C18.7763 7.22002 18.9576 7.33241 19.157 7.39846ZM8.4049 2.49632C8.83387 2.23149 9.32205 2.07767 9.82536 2.04874C10.3287 2.01981 10.8313 2.11668 11.2878 2.3306L10.777 2.49917C10.5486 2.57541 10.3507 2.72317 10.2128 2.9206C10.1678 2.98275 10.1299 3.04917 10.0985 3.11774C9.70088 3.09751 9.30653 3.19865 8.96775 3.40775L2.6049 7.33346L8.92418 11.4656C9.24377 11.6746 9.61734 11.7859 9.99918 11.7859C10.381 11.7859 10.7546 11.6746 11.0742 11.4656L15.3942 8.6406C15.4718 8.69654 15.5576 8.74015 15.6485 8.76989L16.3199 8.99132C16.4116 9.02133 16.4949 9.07275 16.5628 9.14132L16.572 9.1506L15.7135 9.71203V14.4635C15.7135 14.6749 15.5978 14.8063 15.4613 14.9392C15.3935 15.0049 15.2963 15.0963 15.1692 15.2049C14.8252 15.4983 14.4573 15.7623 14.0692 15.9942C13.1178 16.5663 11.7285 17.1427 9.99918 17.1427C8.27061 17.1427 6.88061 16.5663 5.92918 15.9949C5.54108 15.763 5.17312 15.499 4.82918 15.2056C4.72872 15.1202 4.63105 15.0316 4.53633 14.9399C4.40061 14.8063 4.2849 14.6777 4.2849 14.4642V9.71274L2.14204 8.31203V12.6785C2.14204 12.8205 2.0856 12.9568 1.98513 13.0573C1.88467 13.1577 1.74841 13.2142 1.60633 13.2142C1.46425 13.2142 1.32798 13.1577 1.22752 13.0573C1.12705 12.9568 1.07061 12.8205 1.07061 12.6785V7.49989C1.07061 7.46917 1.07347 7.43917 1.07775 7.4106C1.06005 7.30548 1.07411 7.19746 1.11813 7.10038C1.16216 7.00329 1.23415 6.92155 1.3249 6.8656L8.4049 2.49703V2.49632ZM5.35633 10.4135V14.2406C5.70217 14.5558 6.07855 14.8357 6.4799 15.0763C7.31418 15.5763 8.51418 16.0713 9.99918 16.0713C11.4849 16.0713 12.6849 15.5763 13.5185 15.0763C13.9198 14.8357 14.2962 14.5558 14.642 14.2406V10.4135L11.6606 12.3635C11.1667 12.6864 10.5893 12.8585 9.99918 12.8585C9.40903 12.8585 8.83167 12.6864 8.33775 12.3635L5.35633 10.4135Z" fill="#ABABAB"/>
</g>
<defs>
<clipPath id="clip0_3377_22664">
<rect width="20" height="20" fill="white"/>
</clipPath>
</defs>
</svg>
