<svg width="24" height="25" viewBox="0 0 24 25" fill="none" xmlns="http://www.w3.org/2000/svg">
<g id="insta">
<g id="Group">
<path id="Vector" d="M17.3125 2.09375H6.6875C4.09867 2.09375 2 4.19242 2 6.78125V17.4062C2 19.9951 4.09867 22.0938 6.6875 22.0938H17.3125C19.9013 22.0938 22 19.9951 22 17.4062V6.78125C22 4.19242 19.9013 2.09375 17.3125 2.09375Z" fill="url(#paint0_radial_11927_15674)"/>
<path id="Vector_2" d="M17.3125 2.09375H6.6875C4.09867 2.09375 2 4.19242 2 6.78125V17.4062C2 19.9951 4.09867 22.0938 6.6875 22.0938H17.3125C19.9013 22.0938 22 19.9951 22 17.4062V6.78125C22 4.19242 19.9013 2.09375 17.3125 2.09375Z" fill="url(#paint1_radial_11927_15674)"/>
<path id="Vector_3" d="M12.0007 4.28125C9.87898 4.28125 9.61266 4.29055 8.77938 4.32844C7.94766 4.36656 7.37992 4.4982 6.8832 4.69141C6.3693 4.89094 5.93344 5.15789 5.49922 5.59227C5.06461 6.02656 4.79766 6.46242 4.5975 6.97609C4.40375 7.47297 4.27195 8.04094 4.23453 8.87227C4.19727 9.70563 4.1875 9.97203 4.1875 12.0938C4.1875 14.2156 4.19688 14.4811 4.23469 15.3144C4.27297 16.1461 4.40461 16.7138 4.59766 17.2105C4.79734 17.7245 5.0643 18.1603 5.49867 18.5945C5.93281 19.0291 6.36867 19.2967 6.88219 19.4963C7.3793 19.6895 7.94711 19.8211 8.77867 19.8592C9.61203 19.8971 9.87813 19.9064 11.9998 19.9064C14.1217 19.9064 14.3872 19.8971 15.2205 19.8592C16.0522 19.8211 16.6205 19.6895 17.1177 19.4963C17.6313 19.2967 18.0666 19.0291 18.5006 18.5945C18.9352 18.1603 19.2021 17.7245 19.4023 17.2108C19.5944 16.7138 19.7262 16.1459 19.7653 15.3145C19.8027 14.4812 19.8125 14.2156 19.8125 12.0938C19.8125 9.97203 19.8027 9.70578 19.7653 8.87242C19.7262 8.0407 19.5944 7.47305 19.4023 6.97633C19.2021 6.46242 18.9352 6.02656 18.5006 5.59227C18.0661 5.15773 17.6315 4.89078 17.1172 4.69148C16.6191 4.4982 16.0511 4.36648 15.2194 4.32844C14.386 4.29055 14.1207 4.28125 11.9983 4.28125H12.0007ZM11.2998 5.68914C11.5079 5.68883 11.74 5.68914 12.0007 5.68914C14.0867 5.68914 14.3339 5.69664 15.1577 5.73406C15.9194 5.76891 16.3328 5.89617 16.6082 6.00313C16.9728 6.14469 17.2327 6.31398 17.506 6.5875C17.7795 6.86094 17.9487 7.12133 18.0906 7.48594C18.1976 7.76094 18.325 8.17438 18.3597 8.93609C18.3971 9.75969 18.4052 10.007 18.4052 12.092C18.4052 14.177 18.3971 14.4245 18.3597 15.248C18.3248 16.0097 18.1976 16.4231 18.0906 16.6982C17.9491 17.0628 17.7795 17.3224 17.506 17.5957C17.2326 17.8691 16.973 18.0384 16.6082 18.18C16.3331 18.2874 15.9194 18.4144 15.1577 18.4492C14.3341 18.4866 14.0867 18.4948 12.0007 18.4948C9.91461 18.4948 9.66734 18.4866 8.84383 18.4492C8.08211 18.4141 7.66867 18.2868 7.39305 18.1798C7.02852 18.0382 6.76805 17.869 6.49461 17.5955C6.22117 17.3221 6.05195 17.0623 5.91 16.6976C5.80305 16.4225 5.67562 16.0091 5.64094 15.2473C5.60352 14.4237 5.59602 14.1764 5.59602 12.0901C5.59602 10.0038 5.60352 9.75773 5.64094 8.93414C5.67578 8.17242 5.80305 7.75898 5.91 7.48359C6.05164 7.11898 6.22117 6.85859 6.49469 6.58516C6.7682 6.31172 7.02852 6.14242 7.39312 6.00055C7.66852 5.89313 8.08211 5.76617 8.84383 5.73117C9.56453 5.69859 9.84383 5.68883 11.2998 5.68719V5.68914ZM16.171 6.98633C15.6534 6.98633 15.2335 7.40586 15.2335 7.92352C15.2335 8.44109 15.6534 8.86102 16.171 8.86102C16.6886 8.86102 17.1085 8.44109 17.1085 7.92352C17.1085 7.40594 16.6886 6.98602 16.171 6.98602V6.98633ZM12.0007 8.08172C9.78508 8.08172 7.98867 9.87813 7.98867 12.0938C7.98867 14.3095 9.78508 16.1051 12.0007 16.1051C14.2164 16.1051 16.0122 14.3095 16.0122 12.0938C16.0122 9.8782 14.2163 8.08172 12.0005 8.08172H12.0007ZM12.0007 9.48961C13.4389 9.48961 14.6049 10.6555 14.6049 12.0938C14.6049 13.532 13.4389 14.698 12.0007 14.698C10.5625 14.698 9.39656 13.532 9.39656 12.0938C9.39656 10.6555 10.5624 9.48961 12.0007 9.48961Z" fill="white"/>
</g>
</g>
<defs>
<radialGradient id="paint0_radial_11927_15674" cx="0" cy="0" r="1" gradientUnits="userSpaceOnUse" gradientTransform="translate(7.3125 23.6341) rotate(-90) scale(19.8215 18.4355)">
<stop stop-color="#FFDD55"/>
<stop offset="0.1" stop-color="#FFDD55"/>
<stop offset="0.5" stop-color="#FF543E"/>
<stop offset="1" stop-color="#C837AB"/>
</radialGradient>
<radialGradient id="paint1_radial_11927_15674" cx="0" cy="0" r="1" gradientUnits="userSpaceOnUse" gradientTransform="translate(-1.35008 3.53445) rotate(78.681) scale(8.86031 36.5225)">
<stop stop-color="#3771C8"/>
<stop offset="0.128" stop-color="#3771C8"/>
<stop offset="1" stop-color="#6600FF" stop-opacity="0"/>
</radialGradient>
</defs>
</svg>
