<svg width="24" height="25" viewBox="0 0 24 25" fill="none" xmlns="http://www.w3.org/2000/svg">
<g id="linkedin">
<g id="Group 1707480435">
<path id="Vector" d="M20.5246 2.09383H3.47541C3.08858 2.08989 2.71598 2.23957 2.43938 2.51002C2.16277 2.78048 2.00476 3.14962 2 3.53644V20.6543C2.00562 21.0406 2.16401 21.4089 2.44052 21.6786C2.71703 21.9484 3.08914 22.0976 3.47541 22.0937H20.5246C20.9114 22.0967 21.2838 21.9466 21.5603 21.6759C21.8367 21.4053 21.9948 21.0363 22 20.6494V3.53152C21.9931 3.14583 21.8342 2.77845 21.558 2.50924C21.2817 2.24003 20.9103 2.09074 20.5246 2.09383Z" fill="#0076B2"/>
<path id="Vector_2" d="M4.96263 9.59H7.93148V19.1424H4.96263V9.59ZM6.44787 4.83594C6.78839 4.83594 7.12125 4.93693 7.40435 5.12614C7.68746 5.31535 7.90808 5.58428 8.03832 5.8989C8.16855 6.21352 8.20254 6.5597 8.13599 6.89365C8.06944 7.22759 7.90534 7.5343 7.66444 7.77496C7.42355 8.01562 7.11669 8.17943 6.78268 8.24566C6.44867 8.31189 6.10252 8.27757 5.78802 8.14704C5.47352 8.0165 5.2048 7.79563 5.01586 7.51235C4.82692 7.22906 4.72624 6.89611 4.72656 6.5556C4.727 6.09936 4.90854 5.66197 5.2313 5.33951C5.55406 5.01706 5.99164 4.83594 6.44787 4.83594ZM9.79378 9.59H12.6397V10.9015H12.679C13.0757 10.1507 14.043 9.35885 15.4872 9.35885C18.4938 9.3523 19.0512 11.331 19.0512 13.8965V19.1424H16.0823V14.4949C16.0823 13.3883 16.0626 11.9638 14.5397 11.9638C13.0167 11.9638 12.7577 13.1703 12.7577 14.4228V19.1424H9.79378V9.59Z" fill="white"/>
</g>
</g>
</svg>
