<svg width="24" height="25" viewBox="0 0 24 25" fill="none" xmlns="http://www.w3.org/2000/svg">
<g id="twitter">
<path id="Vector" d="M4.85714 2.09375C3.28125 2.09375 2 3.375 2 4.95089V19.2366C2 20.8125 3.28125 22.0938 4.85714 22.0938H19.1429C20.7188 22.0938 22 20.8125 22 19.2366V4.95089C22 3.375 20.7188 2.09375 19.1429 2.09375H4.85714ZM18.1205 5.84375L13.4866 11.1384L18.9375 18.3438H14.6696L11.3304 13.9732L7.50446 18.3438H5.38393L10.3393 12.6786L5.11161 5.84375H9.48661L12.5089 9.83929L16 5.84375H18.1205ZM16.433 17.0759L8.84821 7.04464H7.58482L15.2545 17.0759H16.4286H16.433Z" fill="black"/>
</g>
</svg>
