<svg width="24" height="25" viewBox="0 0 24 25" fill="none" xmlns="http://www.w3.org/2000/svg">
<g id="whatsapp">
<g id="Group 1707480434">
<path id="Vector" d="M2.42422 12.0048C2.42375 13.704 2.86625 15.3631 3.70766 16.8254L2.34375 21.8218L7.44 20.4811C8.84956 21.251 10.4289 21.6544 12.0338 21.6545H12.038C17.336 21.6545 21.6488 17.329 21.651 12.0124C21.652 9.4362 20.653 7.01366 18.8378 5.19107C17.023 3.36864 14.6093 2.36446 12.0376 2.36328C6.73891 2.36328 2.42648 6.68852 2.4243 12.0048" fill="url(#paint0_linear_11927_15663)"/>
<path id="Vector_2" d="M2.08359 12.003C2.08305 13.7633 2.54141 15.4817 3.41281 16.9964L2 22.1719L7.27898 20.7831C8.73352 21.5788 10.3712 21.9983 12.0376 21.999H12.0419C17.53 21.999 21.9977 17.5179 22 12.011C22.0009 9.34219 20.9659 6.83257 19.0859 4.94468C17.2057 3.05704 14.7057 2.01672 12.0419 2.01562C6.55281 2.01562 2.08578 6.49606 2.08359 12.003ZM5.22742 16.7355L5.03031 16.4216C4.20172 15.0997 3.76437 13.5722 3.765 12.0036C3.76672 7.4264 7.47953 3.70245 12.045 3.70245C14.2559 3.70339 16.3337 4.56813 17.8966 6.13706C19.4593 7.70616 20.3192 9.79196 20.3187 12.0104C20.3166 16.5876 16.6037 20.3121 12.0419 20.3121H12.0386C10.5532 20.3113 9.09641 19.911 7.82594 19.1547L7.52359 18.9748L4.39094 19.7989L5.22742 16.7355Z" fill="url(#paint1_linear_11927_15663)"/>
<path id="Vector_3" d="M9.55547 7.82778C9.36906 7.41211 9.17289 7.40372 8.99563 7.39643C8.85047 7.39016 8.68453 7.39063 8.51875 7.39063C8.35281 7.39063 8.0832 7.45326 7.85531 7.70292C7.62719 7.9528 6.98438 8.55668 6.98438 9.78488C6.98438 11.0131 7.87602 12.2001 8.00031 12.3669C8.12477 12.5333 9.72164 15.1344 12.2507 16.135C14.3526 16.9666 14.7803 16.8012 15.2365 16.7595C15.6927 16.718 16.7087 16.1558 16.9159 15.5728C17.1234 14.99 17.1234 14.4904 17.0612 14.3859C16.999 14.2819 16.833 14.2195 16.5842 14.0947C16.3354 13.9699 15.112 13.3659 14.884 13.2825C14.6559 13.1993 14.49 13.1577 14.3241 13.4077C14.1581 13.6573 13.6816 14.2195 13.5364 14.3859C13.3913 14.5528 13.2461 14.5736 12.9973 14.4487C12.7484 14.3235 11.947 14.0602 10.9963 13.2098C10.2566 12.5481 9.75727 11.7309 9.61211 11.481C9.46695 11.2314 9.59656 11.0961 9.72133 10.9717C9.83313 10.8598 9.97023 10.6802 10.0948 10.5345C10.2188 10.3887 10.2602 10.2847 10.3432 10.1182C10.4262 9.95152 10.3847 9.80573 10.3226 9.68086C10.2602 9.556 9.77672 8.32137 9.55547 7.82778Z" fill="white"/>
</g>
</g>
<defs>
<linearGradient id="paint0_linear_11927_15663" x1="967.707" y1="1948.21" x2="967.707" y2="2.36328" gradientUnits="userSpaceOnUse">
<stop stop-color="#1FAF38"/>
<stop offset="1" stop-color="#60D669"/>
</linearGradient>
<linearGradient id="paint1_linear_11927_15663" x1="1002" y1="2017.64" x2="1002" y2="2.01562" gradientUnits="userSpaceOnUse">
<stop stop-color="#F9F9F9"/>
<stop offset="1" stop-color="white"/>
</linearGradient>
</defs>
</svg>
