<svg width="80" height="80" viewBox="0 0 80 80" fill="none" xmlns="http://www.w3.org/2000/svg">
<path d="M65.4516 51.9064H8.5332V22.0547H65.4516V51.9064ZM36.9691 24.0199H17.4084C16.6752 24.0199 16.2505 24.3862 16.2446 25.1004C16.2295 27.1864 14.5668 29.2206 12.0436 29.2954C11.3446 29.3158 10.9678 29.7241 10.9671 30.4297C10.9671 34.8057 10.9671 39.1817 10.9671 43.5577C10.9671 44.2462 11.378 44.6309 12.0666 44.6827C12.4985 44.7149 12.9436 44.7707 13.3505 44.9099C15.0887 45.5006 16.1533 46.9644 16.2328 48.8207C16.2505 49.2316 16.364 49.5972 16.7415 49.7849C16.9792 49.8905 17.2377 49.9412 17.4977 49.9333C30.472 49.9398 43.4469 49.9418 56.4221 49.9392C57.3516 49.9392 57.6614 49.6504 57.7198 48.7288C57.8616 46.5036 59.5847 44.7733 61.7528 44.6775C62.6717 44.6375 62.9907 44.3007 62.9914 43.3647C62.9914 39.1861 62.9914 35.007 62.9914 30.8275C62.9976 30.6305 62.9938 30.4333 62.9802 30.2367C62.9257 29.6912 62.5641 29.342 62.0193 29.2941C61.888 29.2823 61.7567 29.2751 61.6254 29.2659C59.4987 29.109 57.798 27.34 57.7172 25.2002C57.6851 24.3619 57.3286 24.0186 56.493 24.0186L36.9691 24.0199Z" fill="#0072B1"/>
<path d="M70.5087 28.0859H71.4677V57.9429H14.5474V56.976H15.0403C33.1014 56.976 51.1622 56.976 69.2228 56.976C69.6587 56.976 70.0794 56.9347 70.3118 56.5238C70.4353 56.2955 70.5004 56.0403 70.5015 55.7807C70.5107 46.7014 70.5131 37.6212 70.5087 28.5402V28.0859Z" fill="#0072B1"/>
<path d="M67.4852 25.0703H68.4626V54.9253H11.5173C11.5173 54.6529 11.5062 54.3845 11.5258 54.118C11.5304 54.0589 11.6368 53.9795 11.7096 53.9598C11.812 53.9322 11.9262 53.9519 12.0378 53.9519H66.0523C66.2164 53.9519 66.3805 53.9571 66.5446 53.9453C66.7931 53.9328 67.0279 53.8271 67.2021 53.6495C67.3764 53.4718 67.4775 53.2351 67.4852 52.9863C67.4951 52.7789 67.4852 52.5702 67.4852 52.3627V25.0703Z" fill="#0072B1"/>
<path d="M13.0094 31.2529C15.8497 30.605 17.5655 28.8747 18.2153 26.0352H18.5619C30.8458 26.0352 43.1296 26.0352 55.4135 26.0352C55.6373 26.0352 55.7745 26.0411 55.8447 26.3292C56.4749 28.9174 58.1014 30.5302 60.6824 31.1774L60.9706 31.2522V31.5699C60.9706 35.1792 60.9725 38.7894 60.9765 42.4005C60.9765 42.6585 60.899 42.7418 60.6483 42.8049C58.1087 43.4448 56.4998 45.0366 55.8565 47.5802C55.7863 47.8591 55.6813 47.9359 55.403 47.9353C43.1305 47.9287 30.8576 47.9287 18.5842 47.9353C18.302 47.9353 18.1812 47.8762 18.1037 47.5697C17.4559 45.0143 15.8319 43.4238 13.2746 42.795C13.0632 42.7431 12.993 42.6762 12.9937 42.4576C13.0002 38.7818 13.0022 35.1059 12.9996 31.4301C13.0009 31.3743 13.0061 31.3192 13.0094 31.2529ZM36.9555 46.3744C42.166 46.3862 46.3584 42.1826 46.3703 36.934C46.3814 31.8272 42.1575 27.6053 37.0251 27.5928C31.829 27.5797 27.6018 31.7701 27.588 36.9465C27.5743 42.1229 31.7824 46.3625 36.9555 46.3744ZM53.1194 34.103C52.3556 34.1036 51.6231 34.4061 51.0813 34.9445C50.5396 35.4829 50.2326 36.2136 50.2273 36.9773C50.224 38.5488 51.5401 39.8707 53.1108 39.8655C54.6921 39.8655 55.999 38.5586 55.999 36.9826C55.9967 36.2196 55.6926 35.4884 55.1531 34.9489C54.6135 34.4093 53.8824 34.1052 53.1194 34.103ZM17.9685 36.9786C17.9931 37.7274 18.3076 38.4373 18.8457 38.9585C19.3838 39.4797 20.1033 39.7714 20.8525 39.7721C21.6016 39.7728 22.3217 39.4824 22.8608 38.9621C23.3998 38.4419 23.7156 37.7326 23.7415 36.9839C23.7461 35.4217 22.4471 34.1095 20.8882 34.1023C20.5072 34.0981 20.1293 34.1694 19.776 34.3119C19.4227 34.4545 19.1011 34.6655 18.8297 34.9328C18.5583 35.2002 18.3425 35.5186 18.1947 35.8697C18.0469 36.2208 17.97 36.5977 17.9685 36.9786Z" fill="#0072B1"/>
<path d="M44.3498 37.0312C44.3419 41.0871 41.0192 44.3685 36.9325 44.3553C32.8956 44.3422 29.5808 41.0044 29.6051 36.9689C29.6294 32.9333 32.9167 29.6067 36.8957 29.6172C41.0908 29.631 44.3577 32.8775 44.3498 37.0312ZM40.2591 35.0988C40.2427 34.0026 39.4813 33.0095 38.2945 32.5612C38.0976 32.4876 38.0057 32.4089 37.9821 32.1818C37.9237 31.6153 37.5029 31.2516 36.9745 31.2582C36.4317 31.2648 36.0254 31.6521 35.9807 32.2323C35.9676 32.4017 35.9151 32.4771 35.7543 32.5316C35.2146 32.718 34.7311 33.0383 34.3489 33.4624C33.3341 34.5638 33.3538 37.0962 35.5107 37.6634C35.9545 37.7809 36.4048 37.8708 36.8485 37.9863C37.1987 38.0677 37.5435 38.1707 37.881 38.2948C38.1646 38.4071 38.2939 38.6486 38.2092 38.9624C38.1029 39.3562 37.5285 39.6483 36.9266 39.628C36.3122 39.6076 35.8238 39.2998 35.7359 38.8829C35.7287 38.8508 35.728 38.8173 35.7234 38.7851C35.6368 38.1373 35.1753 37.7349 34.6023 37.8045C34.0155 37.876 33.6334 38.4005 33.7201 39.0451C33.8829 40.2568 34.6174 40.9972 35.7182 41.4219C35.8685 41.4797 35.9696 41.5263 35.9807 41.7291C36.0175 42.3133 36.4258 42.6999 36.9686 42.7078C37.5114 42.7157 37.9329 42.3402 37.986 41.7586C38.0051 41.5551 38.0832 41.481 38.2565 41.4193C38.8507 41.2169 39.3696 40.839 39.7445 40.3356C40.8322 38.8665 40.204 36.8639 38.4744 36.3026C38.1843 36.2081 37.8836 36.151 37.585 36.0768C37.1189 35.9613 36.6397 35.8799 36.1934 35.7145C36.003 35.643 35.812 35.4119 35.7464 35.2124C35.6604 34.9498 35.8652 34.7378 36.0871 34.5967C36.5748 34.2862 37.0946 34.2652 37.627 34.4654C37.9939 34.6019 38.2144 34.8441 38.2597 35.259C38.3254 35.8412 38.7849 36.2042 39.3487 36.1576C39.8804 36.1116 40.2683 35.6613 40.2591 35.0988Z" fill="#0072B1"/>
</svg>
