<svg width="80" height="80" viewBox="0 0 80 80" fill="none" xmlns="http://www.w3.org/2000/svg">
<path d="M53.909 55.8761C54.3796 55.5204 54.8043 55.2158 55.2099 54.8915C55.5801 54.5929 55.932 54.2765 56.2858 53.9555C56.3322 53.9079 56.3879 53.8704 56.4495 53.8452C56.511 53.82 56.577 53.8077 56.6435 53.8091C61.4405 53.8131 66.2379 53.8131 71.0357 53.8091C71.314 53.8091 71.593 53.8091 71.8713 53.8091C72.3761 53.8026 72.7004 53.4855 72.7155 52.984C72.7155 52.9026 72.7155 52.8206 72.7155 52.7392C72.7155 41.9414 72.7155 31.1439 72.7155 20.3465C72.7155 20.2107 72.722 20.0741 72.7089 19.9396C72.6969 19.7439 72.6117 19.5599 72.4703 19.4242C72.3288 19.2885 72.1415 19.211 71.9455 19.207C71.8799 19.2031 71.8096 19.207 71.7414 19.207H15.4577C14.7823 19.207 14.481 19.5116 14.481 20.1916V52.8285C14.481 53.5059 14.7856 53.8091 15.4656 53.8098C15.7262 53.8032 15.987 53.8173 16.2454 53.8518C16.1706 53.9037 16.0964 53.9562 16.0209 54.0074C15.2109 54.5555 14.3976 55.0996 13.5922 55.6543C13.5462 55.6927 13.4892 55.7155 13.4294 55.7194C13.3696 55.7232 13.3101 55.708 13.2594 55.6759C12.4429 55.2617 12.0326 54.5942 12.0024 53.6851C12.0024 53.6444 12.0024 53.6037 12.0024 53.563V14.6674C12.0024 13.5889 12.565 12.7467 13.5023 12.4566C13.7365 12.3863 13.9798 12.3507 14.2244 12.3509C33.7942 12.3466 53.3644 12.3466 72.9347 12.3509C74.2954 12.3509 75.2255 13.287 75.2255 14.6483V53.6608C75.2255 54.902 74.2849 55.8564 73.0417 55.8761C72.8244 55.8761 72.6071 55.8761 72.3892 55.8761H53.909ZM37.0395 16.8604H47.639C47.7408 16.8604 47.8432 16.867 47.9442 16.8604C48.3565 16.8276 48.6722 16.6392 48.8396 16.2545C49.0004 15.8843 48.9321 15.5325 48.6827 15.2233C48.4516 14.9352 48.1379 14.8492 47.7775 14.8499C40.6657 14.8525 33.5533 14.8525 26.4406 14.8499C26.3184 14.8473 26.1961 14.8517 26.0743 14.863C25.9284 14.8778 25.7878 14.9263 25.6637 15.0045C25.5395 15.0827 25.4352 15.1886 25.3589 15.3139C25.1514 15.6362 25.1206 15.9808 25.3018 16.3202C25.5079 16.7055 25.8518 16.8604 26.2811 16.8604C29.8677 16.8595 33.4545 16.8595 37.0415 16.8604H37.0395ZM19.5274 16.8604C20.5941 16.8604 21.6607 16.8604 22.7274 16.8604C23.366 16.8604 23.8163 16.3924 23.7737 15.7905C23.7349 15.2509 23.2866 14.8531 22.7077 14.8518C21.6003 14.8518 20.493 14.8518 19.385 14.8518C18.3728 14.8518 17.3606 14.8518 16.3478 14.8518C15.8765 14.8518 15.5135 15.0914 15.352 15.4931C15.0829 16.1626 15.5601 16.8538 16.3065 16.8584C17.3823 16.865 18.4555 16.8597 19.5294 16.8604H19.5274ZM60.2347 15.8758C60.2375 15.3895 60.0486 14.9217 59.7089 14.5737C59.3691 14.2257 58.906 14.0257 58.4197 14.0169C57.4227 14.0123 56.6114 14.8302 56.5989 15.8515C56.5971 16.0905 56.6424 16.3276 56.7323 16.5491C56.8221 16.7706 56.9547 16.9723 57.1225 17.1425C57.2903 17.3128 57.4899 17.4484 57.7101 17.5415C57.9302 17.6346 58.1666 17.6834 58.4056 17.6852C58.8884 17.6887 59.3528 17.5004 59.6966 17.1616C59.8669 16.9938 60.0025 16.7941 60.0956 16.574C60.1887 16.3538 60.2375 16.1175 60.2393 15.8784L60.2347 15.8758ZM71.1237 15.8824C71.1283 14.8538 70.336 14.0208 69.3409 14.0149C68.8497 14.0146 68.3784 14.2088 68.03 14.555C67.6816 14.9013 67.4846 15.3715 67.482 15.8627C67.4823 16.1031 67.53 16.3412 67.6224 16.5632C67.7148 16.7852 67.85 16.9869 68.0203 17.1566C68.1906 17.3264 68.3927 17.4609 68.615 17.5526C68.8373 17.6442 69.0755 17.6912 69.316 17.6907C69.5539 17.6929 69.79 17.6477 70.0103 17.5578C70.2307 17.4678 70.4309 17.3349 70.5993 17.1667C70.7678 16.9986 70.901 16.7986 70.9914 16.5784C71.0818 16.3583 71.1274 16.1223 71.1257 15.8843L71.1237 15.8824ZM62.0444 15.8574C62.0386 16.099 62.0811 16.3393 62.1692 16.5643C62.2574 16.7892 62.3895 16.9944 62.5579 17.1678C62.7262 17.3411 62.9274 17.4792 63.1497 17.5739C63.372 17.6686 63.6109 17.7181 63.8526 17.7195C64.0942 17.7208 64.3337 17.674 64.557 17.5818C64.7804 17.4895 64.9831 17.3537 65.1534 17.1823C65.3236 17.0108 65.458 16.8072 65.5487 16.5832C65.6394 16.3592 65.6845 16.1194 65.6815 15.8778C65.6854 14.8643 64.8689 14.0182 63.8843 14.0143C63.3963 14.017 62.9292 14.2126 62.5849 14.5584C62.2406 14.9042 62.047 15.3721 62.0463 15.8601L62.0444 15.8574Z" fill="#0072B1"/>
<path d="M30.0781 51.6779L28.3189 52.8732C28.4745 53.1824 28.5605 53.4909 28.5086 53.8269C28.484 54.0124 28.4198 54.1903 28.3205 54.3489C28.2212 54.5074 28.089 54.6428 27.933 54.7459L19.4293 60.5091C16.2064 62.6918 12.9828 64.8737 9.75858 67.0547C8.66962 67.7885 7.5137 67.8575 6.37156 67.2057C5.25109 66.5663 4.72597 65.5496 4.78045 64.2676C4.82574 63.2043 5.31345 62.3555 6.19827 61.7556C9.80847 59.3094 13.4209 56.8661 17.0354 54.4256L24.311 49.5026C24.9923 49.0431 25.6651 49.1521 26.3025 49.838L28.0511 48.6565C27.8647 48.2626 27.6757 47.8786 27.5043 47.4887C26.3156 44.7785 25.8121 41.9382 26.0721 38.9962C26.5972 33.0296 29.3948 28.3954 34.4484 25.1712C36.8804 23.6194 39.5755 22.7937 42.4598 22.6184C46.6299 22.3657 50.4422 23.4265 53.8155 25.884C57.7722 28.761 60.1773 32.6482 60.9459 37.4813C61.7238 42.3655 60.6722 46.8678 57.7545 50.8718C54.9924 54.6619 51.2706 57.0551 46.6358 57.8165C40.4 58.8405 35.0766 56.9691 30.7076 52.3986C30.5999 52.2857 30.4995 52.1656 30.3964 52.0474C30.2934 51.9293 30.1943 51.8131 30.0781 51.6779ZM57.7959 40.3287C57.7388 39.6723 57.7178 38.9969 57.6154 38.3339C56.8992 33.7076 54.5611 30.1289 50.4672 27.8539C45.9603 25.3504 41.3071 25.3169 36.8055 27.8283C32.2337 30.379 29.7768 34.4205 29.509 39.6435C29.2602 44.5008 31.127 48.5213 34.9184 51.582C39.355 55.1634 45.6945 55.6438 50.5991 52.7353C55.2799 49.9588 57.5734 45.7447 57.7959 40.3287Z" fill="#0072B1"/>
<path d="M27.9526 55.8493C28.7797 55.3807 29.3527 54.7722 29.4368 53.8086C29.8667 53.8086 30.2796 53.8086 30.6924 53.8125C30.7512 53.8231 30.8051 53.8518 30.8467 53.8946C31.6344 54.551 32.4175 55.2074 33.1809 55.8493H27.9526Z" fill="#0072B1"/>
<path d="M51.6738 33.7924C51.6754 34.2588 51.5847 34.7209 51.4068 35.152C51.2289 35.5832 50.9675 35.9748 50.6374 36.3043C50.3074 36.6339 49.9154 36.8948 49.484 37.072C49.0526 37.2493 48.5903 37.3393 48.124 37.337C46.185 37.3232 44.5978 35.7097 44.6089 33.7629C44.6201 31.7878 46.223 30.1894 48.1811 30.2032C50.1234 30.2183 51.6817 31.8186 51.6738 33.7924Z" fill="#0072B1"/>
<path d="M55.4658 39.9582C55.4658 41.1686 54.4989 42.1538 53.3055 42.1578C52.7279 42.1565 52.1743 41.9264 51.7659 41.5179C51.3576 41.1093 51.1278 40.5555 51.127 39.9779C51.127 38.7353 52.0873 37.7461 53.2931 37.7461C54.4989 37.7461 55.4658 38.734 55.4658 39.9582Z" fill="#0072B1"/>
</svg>
