<svg width="14" height="14" viewBox="0 0 14 14" fill="none" xmlns="http://www.w3.org/2000/svg">
<path d="M4.66602 1.16797V2.91797M9.33268 1.16797V2.91797" stroke="#ABABAB" stroke-width="0.8" stroke-miterlimit="10" stroke-linecap="round" stroke-linejoin="round"/>
<path d="M12.8333 12.8333L12.25 12.25M10.6167 12.4833C11.1117 12.4833 11.5865 12.2867 11.9366 11.9366C12.2867 11.5865 12.4833 11.1117 12.4833 10.6167C12.4833 10.1216 12.2867 9.6468 11.9366 9.29673C11.5865 8.94667 11.1117 8.75 10.6167 8.75C10.1216 8.75 9.6468 8.94667 9.29673 9.29673C8.94667 9.6468 8.75 10.1216 8.75 10.6167C8.75 11.1117 8.94667 11.5865 9.29673 11.9366C9.6468 12.2867 10.1216 12.4833 10.6167 12.4833Z" stroke="#ABABAB" stroke-width="0.8" stroke-linecap="round" stroke-linejoin="round"/>
<path d="M2.04167 5.3038H11.9583M7.79917 12.8346H4.66667C2.625 12.8346 1.75 11.668 1.75 9.91797V4.95964C1.75 3.20964 2.625 2.04297 4.66667 2.04297H9.33333C11.375 2.04297 12.25 3.20964 12.25 4.95964V7.58464" stroke="#ABABAB" stroke-width="0.8" stroke-miterlimit="10" stroke-linecap="round" stroke-linejoin="round"/>
<path d="M6.99876 7.99219H7.00459M4.83984 7.99219H4.84568M4.83984 9.74219H4.84568" stroke="#ABABAB" stroke-width="0.8" stroke-linecap="round" stroke-linejoin="round"/>
</svg>
