<svg width="14" height="14" viewBox="0 0 14 14" fill="none" xmlns="http://www.w3.org/2000/svg">
<path d="M8.35414 11.1235C8.35414 11.4794 8.12081 11.946 7.82331 12.1269L7.00081 12.6577C6.23664 13.1302 5.17497 12.5994 5.17497 11.6544V8.53354C5.17497 8.11937 4.94164 7.58854 4.70247 7.29687L2.46247 4.94021C2.16497 4.64271 1.93164 4.11771 1.93164 3.76187V2.40854C1.93164 1.70271 2.46247 1.17188 3.10997 1.17188H10.8916C11.5391 1.17188 12.07 1.70271 12.07 2.35021V3.64521C12.07 4.11771 11.7725 4.70687 11.4808 4.99854" stroke="#ABABAB" stroke-width="0.8" stroke-miterlimit="10" stroke-linecap="round" stroke-linejoin="round"/>
<path d="M11.5892 9.98568L11.0059 9.40234M9.37253 9.63568C9.8676 9.63568 10.3424 9.43901 10.6925 9.08894C11.0425 8.73888 11.2392 8.26408 11.2392 7.76901C11.2392 7.27394 11.0425 6.79915 10.6925 6.44908C10.3424 6.09901 9.8676 5.90234 9.37253 5.90234C8.87746 5.90234 8.40266 6.09901 8.05259 6.44908C7.70253 6.79915 7.50586 7.27394 7.50586 7.76901C7.50586 8.26408 7.70253 8.73888 8.05259 9.08894C8.40266 9.43901 8.87746 9.63568 9.37253 9.63568Z" stroke="#ABABAB" stroke-width="0.8" stroke-linecap="round" stroke-linejoin="round"/>
</svg>
