<svg width="20" height="20" viewBox="0 0 20 20" fill="none" xmlns="http://www.w3.org/2000/svg">
<path fill-rule="evenodd" clip-rule="evenodd" d="M2.5 2.5V14.1667H11.8279V13.3333H3.33333V3.33333H14.5833V4.21667H15.4167V2.5H2.5ZM15.4167 6.66667C15.4167 6.88768 15.3289 7.09964 15.1726 7.25592C15.0163 7.4122 14.8043 7.5 14.5833 7.5C14.3623 7.5 14.1504 7.4122 13.9941 7.25592C13.8378 7.09964 13.75 6.88768 13.75 6.66667C13.75 6.44565 13.8378 6.23369 13.9941 6.07741C14.1504 5.92113 14.3623 5.83333 14.5833 5.83333C14.8043 5.83333 15.0163 5.92113 15.1726 6.07741C15.3289 6.23369 15.4167 6.44565 15.4167 6.66667ZM16.25 6.66667C16.25 7.10869 16.0744 7.53262 15.7618 7.84518C15.4493 8.15774 15.0254 8.33333 14.5833 8.33333C14.1413 8.33333 13.7174 8.15774 13.4048 7.84518C13.0923 7.53262 12.9167 7.10869 12.9167 6.66667C12.9167 6.22464 13.0923 5.80072 13.4048 5.48816C13.7174 5.17559 14.1413 5 14.5833 5C15.0254 5 15.4493 5.17559 15.7618 5.48816C16.0744 5.80072 16.25 6.22464 16.25 6.66667Z" fill="#ABABAB"/>
<path fill-rule="evenodd" clip-rule="evenodd" d="M12.5396 9.09583C12.772 8.874 13.0808 8.75016 13.4021 8.75H15.1029C15.7129 8.75 16.2808 8.9575 16.7183 9.37083C17.1392 9.76833 17.3583 10.2779 17.4479 10.7608C17.5888 11.52 17.4429 12.3496 17.0842 13.085V16.4583C17.0842 16.7197 16.9859 16.9716 16.8089 17.1639C16.6318 17.3562 16.3889 17.4749 16.1284 17.4965C15.8679 17.5181 15.6088 17.4409 15.4026 17.2803C15.1963 17.1197 15.058 16.8874 15.015 16.6296L14.7925 15.2946L14.57 16.6296C14.527 16.8874 14.3887 17.1197 14.1824 17.2803C13.9762 17.4409 13.7171 17.5181 13.4566 17.4965C13.1961 17.4749 12.9532 17.3562 12.7761 17.1639C12.5991 16.9716 12.5008 16.7197 12.5008 16.4583V12.5388C12.3108 12.6485 12.0953 12.7062 11.8758 12.7063H9.75C9.41848 12.7063 9.10054 12.5746 8.86612 12.3401C8.6317 12.1057 8.5 11.7878 8.5 11.4563C8.5 11.1247 8.6317 10.8068 8.86612 10.5724C9.10054 10.3379 9.41848 10.2063 9.75 10.2063H11.375L12.5396 9.09583ZM13.3342 13.9479V16.4583C13.3343 16.5105 13.354 16.5608 13.3894 16.5991C13.4248 16.6374 13.4733 16.6611 13.5254 16.6654C13.5774 16.6697 13.6291 16.6543 13.6703 16.6223C13.7115 16.5903 13.7392 16.544 13.7479 16.4925L14.1825 13.8858C14.1987 13.7885 14.2488 13.7001 14.3241 13.6364C14.3993 13.5726 14.4947 13.5375 14.5933 13.5375H14.9917C15.0903 13.5375 15.1857 13.5726 15.2609 13.6364C15.3362 13.7001 15.3863 13.7885 15.4025 13.8858L15.8371 16.4925C15.8458 16.544 15.8735 16.5903 15.9147 16.6223C15.9559 16.6543 16.0076 16.6697 16.0596 16.6654C16.1117 16.6611 16.1602 16.6374 16.1956 16.5991C16.231 16.5608 16.2507 16.5105 16.2508 16.4583V12.9858C16.2508 12.9191 16.2668 12.8534 16.2975 12.7942C16.6192 12.1733 16.7363 11.4929 16.6288 10.9129C16.5633 10.5604 16.4104 10.2263 16.1463 9.97667C15.8767 9.72208 15.5192 9.58333 15.1029 9.58333H13.4025C13.2954 9.58333 13.1921 9.62458 13.1146 9.69833L11.8296 10.9242C11.7521 10.9982 11.6492 11.0395 11.5421 11.0396H9.75C9.63949 11.0396 9.53351 11.0835 9.45537 11.1616C9.37723 11.2398 9.33333 11.3457 9.33333 11.4563C9.33333 11.5668 9.37723 11.6727 9.45537 11.7509C9.53351 11.829 9.63949 11.8729 9.75 11.8729H11.8758C11.9829 11.8728 12.0859 11.8315 12.1633 11.7575L12.63 11.3125C12.689 11.2562 12.7633 11.2185 12.8436 11.204C12.9238 11.1896 13.0066 11.199 13.0816 11.2311C13.1566 11.2632 13.2205 11.3166 13.2654 11.3847C13.3103 11.4528 13.3342 11.5326 13.3342 11.6142V13.9483V13.9479Z" fill="#ABABAB"/>
</svg>
