<svg width="20" height="21" viewBox="0 0 20 21" fill="none" xmlns="http://www.w3.org/2000/svg">
<g id="wpf:group" clip-path="url(#clip0_3103_39937)">
<path id="Vector" d="M15.5769 10.6201L15.4178 11.0941C16.4207 11.4307 17.4743 11.9131 18.2662 12.4602C18.6623 12.7339 18.975 13.0116 19.1842 13.2798C19.3942 13.549 19.4754 13.776 19.4754 13.9616V14.4424C19.4754 14.8408 19.1834 15.215 18.3437 15.5255C17.6017 15.7999 16.5871 15.9579 15.4603 16.037C14.9976 15.1146 14.1766 14.3757 13.3182 13.8021C12.5762 13.3064 11.7718 12.9114 11.064 12.6128C11.9713 11.3413 12.76 9.57306 12.76 7.63929C12.76 5.7176 12.0483 4.23059 10.9697 3.2084C11.4711 2.26639 12.3999 1.76929 13.4854 1.76929C14.3078 1.76929 15.0261 2.05289 15.5389 2.57926C16.0507 3.10457 16.3992 3.91469 16.3992 5.0439C16.3992 6.52517 15.7788 8.03768 14.9035 8.95196C14.8514 9.00639 14.8122 9.07188 14.789 9.14356C14.581 9.78518 14.5981 10.2798 14.8203 10.6404C14.9289 10.8166 15.0679 10.9277 15.1891 10.9966C15.2488 11.0306 15.3034 11.0539 15.3466 11.07C15.383 11.0836 15.43 11.0981 15.4212 11.0952L15.5769 10.6201ZM15.5769 10.6201C15.5739 10.6191 15.5704 10.618 15.5664 10.6167C15.4462 10.5791 14.9042 10.4094 15.2646 9.29775M15.5769 10.6201C17.6415 11.3131 19.9754 12.6231 19.9754 13.9616V14.4424C19.9754 15.9024 17.6969 16.4162 15.1446 16.5577C14.4894 14.8535 12.3534 13.6858 10.7525 13.0246L15.2646 9.29775M15.2646 9.29775C16.2338 8.28544 16.8992 6.64698 16.8992 5.0439C16.8992 2.5739 15.3646 1.26929 13.4854 1.26929C12.1023 1.26929 10.8954 1.98236 10.3608 3.33698L15.2646 9.29775ZM8.29851 12.1663C8.29652 12.0373 8.34455 11.9096 8.43725 11.8128C9.40051 10.8064 10.2215 9.19079 10.2215 7.63929C10.2215 6.44965 9.81189 5.58831 9.21565 5.02285C8.61368 4.45196 7.78606 4.14929 6.89846 4.14929C6.63213 4.14929 6.41444 3.94106 6.3993 3.67852C4.62037 3.88925 3.17385 5.23665 3.17385 7.63929C3.17385 9.35467 3.98923 11.1054 5.02462 12.1824L8.29851 12.1663ZM8.29851 12.1663C8.12416 12.8109 8.188 13.3433 8.33619 13.7403C8.41495 13.9513 8.51613 14.1203 8.61312 14.2453C8.66131 14.3074 8.71156 14.3627 8.76158 14.4084C8.79138 14.4357 8.87865 14.5151 8.99925 14.5556C10.0691 14.9149 11.1891 15.4241 12.0306 16.0029C12.4516 16.2925 12.7847 16.5872 13.0082 16.8736C13.2322 17.1606 13.3223 17.4078 13.3223 17.6154V18.1447C13.3223 18.4306 13.1971 18.6759 12.9035 18.9074C12.5948 19.1508 12.1206 19.3583 11.4966 19.5212C10.2525 19.8459 8.58 19.9524 6.92308 19.9524C5.2682 19.9524 3.58942 19.8459 2.33849 19.521C1.71099 19.358 1.23318 19.1503 0.921797 18.9064C0.625413 18.6742 0.5 18.4291 0.5 18.1447V17.6154C0.5 17.4204 0.587021 17.1806 0.809759 16.8953C1.03126 16.6116 1.36062 16.3176 1.77456 16.0266C2.60174 15.4451 3.69465 14.9256 4.71571 14.5519L4.71573 14.5519L4.72175 14.5496C4.82224 14.5114 4.90286 14.4478 4.9476 14.41C5.00391 14.3623 5.06159 14.3046 5.11778 14.2397C5.23027 14.1097 5.35038 13.9349 5.44756 13.7215C5.64512 13.2875 5.74855 12.6884 5.49274 12.0067C5.46884 11.943 5.4322 11.8849 5.38505 11.8358C4.43014 10.8426 3.67385 9.21294 3.67385 7.63929C3.67385 6.44122 4.0648 5.57908 4.63729 5.01677C5.21346 4.45084 6.01342 4.14929 6.9 4.14929L8.29851 12.1663Z" stroke="#ABABAB" stroke-linejoin="round"/>
</g>
<defs>
<clipPath id="clip0_3103_39937">
<rect width="20" height="20" fill="white" transform="translate(0 0.5)"/>
</clipPath>
</defs>
</svg>
