<svg width="16" height="16" viewBox="0 0 16 16" fill="none" xmlns="http://www.w3.org/2000/svg">
<g id="carbon:media-library-filled">
<path id="Vector" d="M13 5H3C2.73486 5.00026 2.48066 5.10571 2.29319 5.29319C2.10571 5.48066 2.00026 5.73486 2 6V13C2.00026 13.2651 2.10571 13.5193 2.29319 13.7068C2.48066 13.8943 2.73486 13.9997 3 14H13C13.2651 13.9997 13.5193 13.8943 13.7068 13.7068C13.8943 13.5193 13.9997 13.2651 14 13V6C13.9997 5.73486 13.8943 5.48066 13.7068 5.29319C13.5193 5.10571 13.2651 5.00026 13 5ZM6.5 11.5V7.5L10 9.5L6.5 11.5ZM3 3H13V4H3V3ZM4 1H12V2H4V1Z" fill="white"/>
</g>
</svg>
