<svg width="14" height="14" viewBox="0 0 14 14" fill="none" xmlns="http://www.w3.org/2000/svg">
<g id="fa:group" clip-path="url(#clip0_3403_24708)">
<path id="Vector" d="M4.32396 7C3.53646 7.02604 2.89236 7.35938 2.39167 8H1.41458C1.01597 8 0.680556 7.89453 0.408333 7.68359C0.136111 7.47266 0 7.16406 0 6.75781C0 4.91927 0.301389 4 0.904167 4C0.933333 4 1.03906 4.05469 1.22135 4.16406C1.40365 4.27344 1.64062 4.38411 1.93229 4.49609C2.22396 4.60807 2.51319 4.66406 2.8 4.66406C3.12569 4.66406 3.44896 4.60417 3.76979 4.48438C3.74549 4.67708 3.73333 4.84896 3.73333 5C3.73333 5.72396 3.93021 6.39062 4.32396 7ZM12.1333 11.9766C12.1333 12.6016 11.9559 13.0951 11.601 13.457C11.2462 13.819 10.7747 14 10.1865 14H3.81354C3.22535 14 2.75382 13.819 2.39896 13.457C2.0441 13.0951 1.86667 12.6016 1.86667 11.9766C1.86667 11.7005 1.87517 11.431 1.89219 11.168C1.9092 10.9049 1.94323 10.6211 1.99427 10.3164C2.04531 10.0117 2.10972 9.72917 2.1875 9.46875C2.26528 9.20833 2.36979 8.95443 2.50104 8.70703C2.63229 8.45964 2.78299 8.2487 2.95312 8.07422C3.12326 7.89974 3.33108 7.76042 3.57656 7.65625C3.82205 7.55208 4.09306 7.5 4.38958 7.5C4.43819 7.5 4.54271 7.55599 4.70312 7.66797C4.86354 7.77995 5.04097 7.90495 5.23542 8.04297C5.42986 8.18099 5.68993 8.30599 6.01562 8.41797C6.34132 8.52995 6.66944 8.58594 7 8.58594C7.33056 8.58594 7.65868 8.52995 7.98438 8.41797C8.31007 8.30599 8.57014 8.18099 8.76458 8.04297C8.95903 7.90495 9.13646 7.77995 9.29688 7.66797C9.45729 7.55599 9.56181 7.5 9.61042 7.5C9.90694 7.5 10.178 7.55208 10.4234 7.65625C10.6689 7.76042 10.8767 7.89974 11.0469 8.07422C11.217 8.2487 11.3677 8.45964 11.499 8.70703C11.6302 8.95443 11.7347 9.20833 11.8125 9.46875C11.8903 9.72917 11.9547 10.0117 12.0057 10.3164C12.0568 10.6211 12.0908 10.9049 12.1078 11.168C12.1248 11.431 12.1333 11.7005 12.1333 11.9766ZM4.66667 2C4.66667 2.55208 4.48438 3.02344 4.11979 3.41406C3.75521 3.80469 3.31528 4 2.8 4C2.28472 4 1.84479 3.80469 1.48021 3.41406C1.11563 3.02344 0.933333 2.55208 0.933333 2C0.933333 1.44792 1.11563 0.976562 1.48021 0.585938C1.84479 0.195312 2.28472 0 2.8 0C3.31528 0 3.75521 0.195312 4.11979 0.585938C4.48438 0.976562 4.66667 1.44792 4.66667 2ZM9.8 5C9.8 5.82812 9.52656 6.53516 8.97969 7.12109C8.43281 7.70703 7.77292 8 7 8C6.22708 8 5.56719 7.70703 5.02031 7.12109C4.47344 6.53516 4.2 5.82812 4.2 5C4.2 4.17188 4.47344 3.46484 5.02031 2.87891C5.56719 2.29297 6.22708 2 7 2C7.77292 2 8.43281 2.29297 8.97969 2.87891C9.52656 3.46484 9.8 4.17188 9.8 5ZM14 6.75781C14 7.16406 13.8639 7.47266 13.5917 7.68359C13.3194 7.89453 12.984 8 12.5854 8H11.6083C11.1076 7.35938 10.4635 7.02604 9.67604 7C10.0698 6.39062 10.2667 5.72396 10.2667 5C10.2667 4.84896 10.2545 4.67708 10.2302 4.48438C10.551 4.60417 10.8743 4.66406 11.2 4.66406C11.4868 4.66406 11.776 4.60807 12.0677 4.49609C12.3594 4.38411 12.5964 4.27344 12.7786 4.16406C12.9609 4.05469 13.0667 4 13.0958 4C13.6986 4 14 4.91927 14 6.75781ZM13.0667 2C13.0667 2.55208 12.8844 3.02344 12.5198 3.41406C12.1552 3.80469 11.7153 4 11.2 4C10.6847 4 10.2448 3.80469 9.88021 3.41406C9.51562 3.02344 9.33333 2.55208 9.33333 2C9.33333 1.44792 9.51562 0.976562 9.88021 0.585938C10.2448 0.195312 10.6847 0 11.2 0C11.7153 0 12.1552 0.195312 12.5198 0.585938C12.8844 0.976562 13.0667 1.44792 13.0667 2Z" fill="#0072B1"/>
</g>
<defs>
<clipPath id="clip0_3403_24708">
<rect width="14" height="14" fill="white"/>
</clipPath>
</defs>
</svg>
