<svg width="28" height="28" viewBox="0 0 28 28" fill="none" xmlns="http://www.w3.org/2000/svg">
<g id="fluent:video-24-regular">
<path id="Vector" d="M16.0423 5.25C17.0479 5.25 18.0124 5.64948 18.7234 6.36055C19.4345 7.07163 19.834 8.03605 19.834 9.04167V9.2435L24.342 6.53917C24.4748 6.45947 24.6263 6.41643 24.7811 6.41445C24.936 6.41248 25.0886 6.45162 25.2233 6.5279C25.3581 6.60418 25.4702 6.71486 25.5482 6.84863C25.6262 6.9824 25.6673 7.13448 25.6673 7.28933V20.7083C25.6673 20.8632 25.6262 21.0153 25.5482 21.149C25.4702 21.2828 25.3581 21.3935 25.2233 21.4698C25.0886 21.546 24.936 21.5852 24.7811 21.5832C24.6263 21.5812 24.4748 21.5382 24.342 21.4585L19.834 18.7542V18.9583C19.834 19.9639 19.4345 20.9284 18.7234 21.6394C18.0124 22.3505 17.0479 22.75 16.0423 22.75H6.12565C5.12004 22.75 4.15561 22.3505 3.44454 21.6394C2.73346 20.9284 2.33398 19.9639 2.33398 18.9583V9.04167C2.33398 8.03605 2.73346 7.07163 3.44454 6.36055C4.15561 5.64948 5.12004 5.25 6.12565 5.25H16.0423ZM16.0423 7H6.12565C5.58417 7 5.06486 7.2151 4.68197 7.59799C4.29909 7.98088 4.08398 8.50018 4.08398 9.04167V18.9583C4.08398 20.0853 4.99865 21 6.12565 21H16.0423C16.5838 21 17.1031 20.7849 17.486 20.402C17.8689 20.0191 18.084 19.4998 18.084 18.9583V9.04167C18.084 8.50018 17.8689 7.98088 17.486 7.59799C17.1031 7.2151 16.5838 7 16.0423 7ZM23.9173 8.83517L19.834 11.2863V16.7125L23.9173 19.1625V8.83517Z" fill="#0072B1"/>
</g>
</svg>
