<svg width="20" height="20" viewBox="0 0 20 20" fill="none" xmlns="http://www.w3.org/2000/svg">
<g clip-path="url(#clip0_3377_22652)">
<path d="M15.5769 10.1201L15.4178 10.5941C16.4207 10.9307 17.4743 11.4131 18.2662 11.9602C18.6623 12.2339 18.975 12.5116 19.1842 12.7798C19.3942 13.049 19.4754 13.276 19.4754 13.4616V13.9424C19.4754 14.3408 19.1834 14.715 18.3437 15.0255C17.6017 15.2999 16.5871 15.4579 15.4603 15.537C14.9976 14.6146 14.1766 13.8757 13.3182 13.3021C12.5762 12.8064 11.7718 12.4114 11.064 12.1128C11.9713 10.8413 12.76 9.07306 12.76 7.13929C12.76 5.2176 12.0483 3.73059 10.9697 2.7084C11.4711 1.76639 12.3999 1.26929 13.4854 1.26929C14.3078 1.26929 15.0261 1.55289 15.5389 2.07926C16.0507 2.60457 16.3992 3.41469 16.3992 4.5439C16.3992 6.02517 15.7788 7.53768 14.9035 8.45196C14.8514 8.50639 14.8122 8.57188 14.789 8.64356C14.581 9.28518 14.5981 9.77979 14.8203 10.1404C14.9289 10.3166 15.0679 10.4277 15.1891 10.4966C15.2488 10.5306 15.3034 10.5539 15.3466 10.57C15.383 10.5836 15.43 10.5981 15.4212 10.5952L15.5769 10.1201ZM15.5769 10.1201C15.5739 10.1191 15.5704 10.118 15.5664 10.1167C15.4462 10.0791 14.9042 9.90941 15.2646 8.79775M15.5769 10.1201C17.6415 10.8131 19.9754 12.1231 19.9754 13.4616V13.9424C19.9754 15.4024 17.6969 15.9162 15.1446 16.0577C14.4894 14.3535 12.3534 13.1858 10.7525 12.5246L15.2646 8.79775M15.2646 8.79775C16.2338 7.78544 16.8992 6.14698 16.8992 4.5439C16.8992 2.0739 15.3646 0.769287 13.4854 0.769287C12.1023 0.769287 10.8954 1.48236 10.3608 2.83698L15.2646 8.79775ZM8.29851 11.6663C8.29652 11.5373 8.34455 11.4096 8.43725 11.3128C9.40051 10.3064 10.2215 8.69079 10.2215 7.13929C10.2215 5.94965 9.81189 5.08831 9.21565 4.52285C8.61368 3.95196 7.78606 3.64929 6.89846 3.64929C6.63213 3.64929 6.41444 3.44106 6.3993 3.17852C4.62037 3.38925 3.17385 4.73665 3.17385 7.13929C3.17385 8.85467 3.98923 10.6054 5.02462 11.6824L8.29851 11.6663ZM8.29851 11.6663C8.12416 12.3109 8.188 12.8433 8.33619 13.2403C8.41495 13.4513 8.51613 13.6203 8.61312 13.7453C8.66131 13.8074 8.71156 13.8627 8.76158 13.9084C8.79138 13.9357 8.87865 14.0151 8.99925 14.0556C10.0691 14.4149 11.1891 14.9241 12.0306 15.5029C12.4516 15.7925 12.7847 16.0872 13.0082 16.3736C13.2322 16.6606 13.3223 16.9078 13.3223 17.1154V17.6447C13.3223 17.9306 13.1971 18.1759 12.9035 18.4074C12.5948 18.6508 12.1206 18.8583 11.4966 19.0212C10.2525 19.3459 8.58 19.4524 6.92308 19.4524C5.2682 19.4524 3.58942 19.3459 2.33849 19.021C1.71099 18.858 1.23318 18.6503 0.921797 18.4064C0.625413 18.1742 0.5 17.9291 0.5 17.6447V17.1154C0.5 16.9204 0.587021 16.6806 0.809759 16.3953C1.03126 16.1116 1.36062 15.8176 1.77456 15.5266C2.60174 14.9451 3.69465 14.4256 4.71571 14.0519L4.71573 14.0519L4.72175 14.0496C4.82224 14.0114 4.90286 13.9478 4.9476 13.91C5.00391 13.8623 5.06159 13.8046 5.11778 13.7397C5.23027 13.6097 5.35038 13.4349 5.44756 13.2215C5.64512 12.7875 5.74855 12.1884 5.49274 11.5067C5.46884 11.443 5.4322 11.3849 5.38505 11.3358C4.43014 10.3426 3.67385 8.71294 3.67385 7.13929C3.67385 5.94122 4.0648 5.07908 4.63729 4.51677C5.21346 3.95084 6.01342 3.64929 6.9 3.64929L8.29851 11.6663Z" stroke="#ABABAB" stroke-linejoin="round"/>
</g>
<defs>
<clipPath id="clip0_3377_22652">
<rect width="20" height="20" fill="white"/>
</clipPath>
</defs>
</svg>
