<svg width="28" height="28" viewBox="0 0 28 28" fill="none" xmlns="http://www.w3.org/2000/svg">
<g id="mdi:folder-multiple-image">
<path id="Vector" d="M8.16667 17.5026L13.4167 10.5026L17.5 15.7526L20.4167 12.2526L24.5 17.5026M25.6667 4.66927H16.3333L14 2.33594H7C6.38116 2.33594 5.78767 2.58177 5.35008 3.01935C4.9125 3.45694 4.66667 4.05043 4.66667 4.66927V18.6693C4.66667 19.2881 4.9125 19.8816 5.35008 20.3192C5.78767 20.7568 6.38116 21.0026 7 21.0026H25.6667C26.2855 21.0026 26.879 20.7568 27.3166 20.3192C27.7542 19.8816 28 19.2881 28 18.6693V7.0026C28 6.38377 27.7542 5.79027 27.3166 5.35269C26.879 4.9151 26.2855 4.66927 25.6667 4.66927ZM2.33333 7.0026H0V23.3359C0 23.9548 0.245833 24.5483 0.683417 24.9859C1.121 25.4234 1.71449 25.6693 2.33333 25.6693H23.3333V23.3359H2.33333V7.0026Z" fill="#0072B1"/>
</g>
</svg>
