<svg width="12" height="12" viewBox="0 0 12 12" fill="none" xmlns="http://www.w3.org/2000/svg">
<path id="Vector" d="M8.57633 7.54717H8.03431L7.8422 7.36192C8.53782 6.55508 8.92014 5.52501 8.91938 4.45969C8.91938 3.57765 8.65783 2.71541 8.16779 1.98202C7.67775 1.24863 6.98124 0.677019 6.16634 0.339476C5.35144 0.00193231 4.45474 -0.0863844 3.58965 0.0856937C2.72455 0.257772 1.92991 0.682516 1.30621 1.30621C0.682516 1.92991 0.257772 2.72455 0.0856937 3.58965C-0.0863844 4.45474 0.00193231 5.35144 0.339476 6.16634C0.677019 6.98124 1.24863 7.67775 1.98202 8.16779C2.71541 8.65783 3.57765 8.91938 4.45969 8.91938C5.56432 8.91938 6.57976 8.51458 7.36192 7.8422L7.54717 8.03431V8.57633L10.9777 12L12 10.9777L8.57633 7.54717ZM4.45969 7.54717C2.75129 7.54717 1.37221 6.1681 1.37221 4.45969C1.37221 2.75129 2.75129 1.37221 4.45969 1.37221C6.1681 1.37221 7.54717 2.75129 7.54717 4.45969C7.54717 6.1681 6.1681 7.54717 4.45969 7.54717Z" fill="#181818"/>
</svg>
